<svg xmlns="http://www.w3.org/2000/svg" version="1.1" xmlns:xlink="http://www.w3.org/1999/xlink" xmlns:svgjs="http://svgjs.dev/svgjs" width="1500" height="357" viewBox="0 0 1500 357"><g transform="matrix(1,0,0,1,-12.551525850020539,-14.246417482947692)"><svg viewBox="0 0 399 95" data-background-color="#e56d90" preserveAspectRatio="xMidYMid meet" height="357" width="1500" xmlns="http://www.w3.org/2000/svg" xmlns:xlink="http://www.w3.org/1999/xlink"><g id="tight-bounds" transform="matrix(1,0,0,1,3.3387058761054504,3.791063475854429)"><svg viewBox="0 0 395.52 85.45284232776493" height="85.45284232776493" width="395.52"><g><svg viewBox="0 0 565.89764722519 122.26325450542906" height="85.45284232776493" width="395.52"><g><rect width="7.34122165938273" height="122.26325450542906" x="143.81856781873205" y="0" fill="#ffffff" opacity="1" stroke-width="0" stroke="transparent" fill-opacity="1" class="rect-qz-0" data-fill-palette-color="primary" rx="1%" id="qz-0" data-palette-color="#ffffff"></rect></g><g transform="matrix(1,0,0,1,170.37764722519,0.3041374490184765)"><svg viewBox="0 0 395.52 121.65497960739211" height="121.65497960739211" width="395.52"><g id="textblocktransform"><svg viewBox="0 0 395.52 121.65497960739211" height="121.65497960739211" width="395.52" id="textblock"><g><svg viewBox="0 0 395.52 81.4053853296193" height="81.4053853296193" width="395.52"><g transform="matrix(1,0,0,1,0,0)"><svg width="395.52" viewBox="1.5 -32.5 161.54 33.25" height="81.4053853296193" data-palette-color="#ffffff"><path d="M29-2.6L31.9-2.4 31.85 0 24.95 0 13.7-15.45 10.4-11.9 10.4-2.9 15.25-2.35 15.2 0 1.8 0 1.5-1.6 5.75-3.15 5.75-29.7 1.85-30.15 1.9-32.5 14.35-32.5 14.65-30.9 10.4-29.35 10.4-16.5 22.75-29.75 19.25-30.15 19.3-32.5 30.15-32.5 30.45-30.9 26.95-29.6 16.85-18.8 29-2.6ZM70.45-15.35L70.45-3.2Q73-2.85 73.95-2.4L73.95-2.4 73.65 0 63.4 0 63.15-1.65 66-2.75 66-14.8Q66-20.2 62.8-20.2L62.8-20.2Q60.25-20.2 55.5-16.8L55.5-16.8 55.5-3.2Q58.05-2.85 59-2.4L59-2.4 58.7 0 48.45 0 48.2-1.65 51.05-2.75 51.05-14.8Q51.05-20.2 47.85-20.2L47.85-20.2Q45.25-20.2 40.6-16.85L40.6-16.85 40.6-3.15Q42.7-2.9 43.85-2.4L43.85-2.4 43.55 0 32.85 0 32.6-1.65 36.15-2.95 36.15-20.6 32.4-20.3 31.8-22.65Q35.15-24.1 38.6-24.2L38.6-24.2 40.6-22.45 40.6-19.5Q47.65-24.2 50.25-24.2L50.25-24.2Q51.6-23.95 52.9-22.95 54.2-21.95 54.8-20.85L54.8-20.85 55.25-19.35Q62.8-24.2 65.2-24.2L65.2-24.2Q66.65-23.95 68.12-22.73 69.6-21.5 70.02-20.2 70.45-18.9 70.45-15.35L70.45-15.35ZM114.35-15.35L114.35-3.2Q116.9-2.85 117.85-2.4L117.85-2.4 117.55 0 107.3 0 107.05-1.65 109.9-2.75 109.9-14.8Q109.9-20.2 106.7-20.2L106.7-20.2Q104.15-20.2 99.4-16.8L99.4-16.8 99.4-3.2Q101.95-2.85 102.9-2.4L102.9-2.4 102.6 0 92.35 0 92.1-1.65 94.95-2.75 94.95-14.8Q94.95-20.2 91.75-20.2L91.75-20.2Q89.15-20.2 84.5-16.85L84.5-16.85 84.5-3.15Q86.6-2.9 87.75-2.4L87.75-2.4 87.45 0 76.75 0 76.5-1.65 80.05-2.95 80.05-20.6 76.3-20.3 75.7-22.65Q79.05-24.1 82.5-24.2L82.5-24.2 84.5-22.45 84.5-19.5Q91.55-24.2 94.15-24.2L94.15-24.2Q95.5-23.95 96.8-22.95 98.1-21.95 98.7-20.85L98.7-20.85 99.15-19.35Q106.7-24.2 109.09-24.2L109.09-24.2Q110.55-23.95 112.02-22.73 113.5-21.5 113.92-20.2 114.35-18.9 114.35-15.35L114.35-15.35ZM139.39-23.15L139.39-23.15Q139.59-19.45 138.49-15.05L138.49-15.05 135.79-15.05 135.24-20.55Q131.19-18.3 128.39-14.6L128.39-14.6 128.39-3.3Q132.04-3.05 133.54-2.4L133.54-2.4 133.24 0 120.54 0 120.29-1.65 123.94-3 123.94-20.6 120.19-20.3 119.59-22.65Q122.94-24.1 126.39-24.2L126.39-24.2 128.39-22.45 128.39-17.9 133.64-23.5Q135.09-24.1 136.29-24.1L136.29-24.1Q137.89-24.1 139.39-23.15ZM160.49-7.35L163.04-7Q162.89-2.9 161.89 0.5L161.89 0.5 145.79-0.95 143.89 0.75 141.69-1.05 155.99-20.4 146.19-20.1 145.59-15.1 143.14-15.1Q142.59-17.45 142.59-20.85L142.59-20.85 142.69-23.4 159.69-23.4 161.24-24.5 162.94-23 148.94-4.05 159.44-3.55 160.49-7.35Z" opacity="1" transform="matrix(1,0,0,1,0,0)" fill="#ffffff" class="wordmark-text-0" data-fill-palette-color="primary" id="text-0"></path></svg></g></svg></g><g transform="matrix(1,0,0,1,0,100.62324307669451)"><svg viewBox="0 0 232.209792 21.031736530697586" height="21.031736530697586" width="232.209792"><g transform="matrix(1,0,0,1,0,0)"><svg width="232.209792" viewBox="4.25 -37 526.05 47.65" height="21.031736530697586" data-palette-color="#ffffff"><path d="M28.55 0L4.25 0 4.25-35.5 8.75-35.5 8.75-4 28.55-4 28.55 0ZM30.7-7.55L30.7-7.55Q30.7-10.05 32.12-11.88 33.55-13.7 36.05-14.7 38.55-15.7 41.85-15.7L41.85-15.7Q43.6-15.7 45.55-15.43 47.5-15.15 49-14.6L49-14.6 49-16.5Q49-19.5 47.2-21.23 45.4-22.95 42.1-22.95L42.1-22.95Q39.95-22.95 37.97-22.18 36-21.4 33.8-19.95L33.8-19.95 32.2-23.05Q34.75-24.8 37.3-25.68 39.85-26.55 42.6-26.55L42.6-26.55Q47.6-26.55 50.5-23.78 53.4-21 53.4-16.05L53.4-16.05 53.4-5Q53.4-4.2 53.72-3.83 54.05-3.45 54.8-3.4L54.8-3.4 54.8 0Q54.15 0.1 53.67 0.15 53.2 0.2 52.9 0.2L52.9 0.2Q51.35 0.2 50.57-0.65 49.8-1.5 49.7-2.45L49.7-2.45 49.6-4.1Q47.9-1.9 45.15-0.7 42.4 0.5 39.7 0.5L39.7 0.5Q37.1 0.5 35.05-0.58 33-1.65 31.85-3.48 30.7-5.3 30.7-7.55ZM47.7-5.7L47.7-5.7Q48.3-6.4 48.65-7.13 49-7.85 49-8.35L49-8.35 49-11.6Q47.45-12.2 45.75-12.53 44.05-12.85 42.4-12.85L42.4-12.85Q39.05-12.85 36.97-11.53 34.9-10.2 34.9-7.9L34.9-7.9Q34.9-6.65 35.57-5.48 36.25-4.3 37.57-3.55 38.9-2.8 40.85-2.8L40.85-2.8Q42.9-2.8 44.75-3.63 46.6-4.45 47.7-5.7ZM60.2-10.45L60.2-10.45 60.2-26.1 64.6-26.1 64.6-11.3Q64.6-7.3 66-5.3 67.4-3.3 70.15-3.3L70.15-3.3Q71.95-3.3 73.62-4.08 75.3-4.85 76.65-6.3 78-7.75 78.75-9.75L78.75-9.75 78.75-26.1 83.15-26.1 83.15-5Q83.15-4.2 83.47-3.83 83.8-3.45 84.55-3.4L84.55-3.4 84.55 0Q83.8 0.1 83.37 0.13 82.95 0.15 82.55 0.15L82.55 0.15Q81.3 0.15 80.4-0.63 79.5-1.4 79.45-2.55L79.45-2.55 79.35-5.6Q77.65-2.7 74.77-1.1 71.9 0.5 68.5 0.5L68.5 0.5Q64.4 0.5 62.3-2.27 60.2-5.05 60.2-10.45ZM113.14-15.6L113.14 0 108.74 0 108.74-14.6Q108.74-18.75 107.47-20.68 106.19-22.6 103.59-22.6L103.59-22.6Q101.79-22.6 100.02-21.7 98.24-20.8 96.87-19.28 95.49-17.75 94.89-15.75L94.89-15.75 94.89 0 90.49 0 90.49-26.1 94.49-26.1 94.49-20.5Q95.54-22.35 97.19-23.7 98.84-25.05 100.94-25.8 103.04-26.55 105.34-26.55L105.34-26.55Q107.59-26.55 109.12-25.73 110.64-24.9 111.52-23.43 112.39-21.95 112.77-19.95 113.14-17.95 113.14-15.6L113.14-15.6ZM131.54 0.5L131.54 0.5Q128.59 0.5 126.17-0.58 123.74-1.65 121.97-3.55 120.19-5.45 119.22-7.9 118.24-10.35 118.24-13.1L118.24-13.1Q118.24-16.8 119.89-19.85 121.54-22.9 124.54-24.73 127.54-26.55 131.49-26.55L131.49-26.55Q135.34-26.55 138.22-24.83 141.09-23.1 142.49-20.2L142.49-20.2 138.19-18.85Q137.19-20.7 135.39-21.73 133.59-22.75 131.39-22.75L131.39-22.75Q128.99-22.75 127.02-21.5 125.04-20.25 123.89-18.07 122.74-15.9 122.74-13.1L122.74-13.1Q122.74-10.35 123.92-8.13 125.09-5.9 127.07-4.6 129.04-3.3 131.44-3.3L131.44-3.3Q132.99-3.3 134.42-3.85 135.84-4.4 136.92-5.33 137.99-6.25 138.39-7.35L138.39-7.35 142.69-6.05Q141.89-4.15 140.27-2.68 138.64-1.2 136.42-0.35 134.19 0.5 131.54 0.5ZM170.34-15.6L170.34 0 165.94 0 165.94-14.6Q165.94-18.6 164.51-20.6 163.09-22.6 160.44-22.6L160.44-22.6Q158.74-22.6 157.01-21.7 155.29-20.8 153.99-19.28 152.69-17.75 152.09-15.75L152.09-15.75 152.09 0 147.69 0 147.69-36.5 152.09-36.5 152.09-20.5Q153.64-23.3 156.31-24.93 158.99-26.55 162.09-26.55L162.09-26.55Q164.44-26.55 166.01-25.73 167.59-24.9 168.54-23.4 169.49-21.9 169.91-19.93 170.34-17.95 170.34-15.6L170.34-15.6ZM203.88 0.5L203.88 0.5Q200.68 0.5 198.18-1.1 195.68-2.7 194.23-5.15L194.23-5.15 194.23 10.65 189.83 10.65 189.83-26.1 193.73-26.1 193.73-21.2Q195.28-23.6 197.78-25.08 200.28-26.55 203.23-26.55L203.23-26.55Q205.93-26.55 208.18-25.45 210.43-24.35 212.08-22.45 213.73-20.55 214.66-18.13 215.58-15.7 215.58-13.05L215.58-13.05Q215.58-9.35 214.11-6.25 212.63-3.15 209.98-1.33 207.33 0.5 203.88 0.5ZM202.53-3.3L202.53-3.3Q204.48-3.3 206.06-4.13 207.63-4.95 208.76-6.33 209.88-7.7 210.48-9.45 211.08-11.2 211.08-13.05L211.08-13.05Q211.08-15 210.41-16.75 209.73-18.5 208.51-19.85 207.28-21.2 205.66-21.98 204.03-22.75 202.13-22.75L202.13-22.75Q200.93-22.75 199.66-22.3 198.38-21.85 197.23-21.03 196.08-20.2 195.28-19.15 194.48-18.1 194.23-16.9L194.23-16.9 194.23-9.45Q194.98-7.75 196.23-6.35 197.48-4.95 199.13-4.13 200.78-3.3 202.53-3.3ZM218.93-7.55L218.93-7.55Q218.93-10.05 220.36-11.88 221.78-13.7 224.28-14.7 226.78-15.7 230.08-15.7L230.08-15.7Q231.83-15.7 233.78-15.43 235.73-15.15 237.23-14.6L237.23-14.6 237.23-16.5Q237.23-19.5 235.43-21.23 233.63-22.95 230.33-22.95L230.33-22.95Q228.18-22.95 226.21-22.18 224.23-21.4 222.03-19.95L222.03-19.95 220.43-23.05Q222.98-24.8 225.53-25.68 228.08-26.55 230.83-26.55L230.83-26.55Q235.83-26.55 238.73-23.78 241.63-21 241.63-16.05L241.63-16.05 241.63-5Q241.63-4.2 241.96-3.83 242.28-3.45 243.03-3.4L243.03-3.4 243.03 0Q242.38 0.1 241.91 0.15 241.43 0.2 241.13 0.2L241.13 0.2Q239.58 0.2 238.81-0.65 238.03-1.5 237.93-2.45L237.93-2.45 237.83-4.1Q236.13-1.9 233.38-0.7 230.63 0.5 227.93 0.5L227.93 0.5Q225.33 0.5 223.28-0.58 221.23-1.65 220.08-3.48 218.93-5.3 218.93-7.55ZM235.93-5.7L235.93-5.7Q236.53-6.4 236.88-7.13 237.23-7.85 237.23-8.35L237.23-8.35 237.23-11.6Q235.68-12.2 233.98-12.53 232.28-12.85 230.63-12.85L230.63-12.85Q227.28-12.85 225.21-11.53 223.13-10.2 223.13-7.9L223.13-7.9Q223.13-6.65 223.81-5.48 224.48-4.3 225.81-3.55 227.13-2.8 229.08-2.8L229.08-2.8Q231.13-2.8 232.98-3.63 234.83-4.45 235.93-5.7ZM246.98-13L246.98-13Q246.98-16.7 248.5-19.78 250.03-22.85 252.7-24.7 255.38-26.55 258.83-26.55L258.83-26.55Q261.98-26.55 264.48-24.9 266.98-23.25 268.38-20.9L268.38-20.9 268.38-36.5 272.78-36.5 272.78-5Q272.78-4.2 273.1-3.83 273.43-3.45 274.18-3.4L274.18-3.4 274.18 0Q272.93 0.2 272.23 0.2L272.23 0.2Q270.93 0.2 269.95-0.7 268.98-1.6 268.98-2.7L268.98-2.7 268.98-4.9Q267.43-2.4 264.83-0.95 262.23 0.5 259.43 0.5L259.43 0.5Q256.73 0.5 254.45-0.58 252.18-1.65 250.5-3.55 248.83-5.45 247.9-7.88 246.98-10.3 246.98-13ZM268.38-9.15L268.38-9.15 268.38-16.65Q267.78-18.35 266.43-19.73 265.08-21.1 263.4-21.93 261.73-22.75 260.08-22.75L260.08-22.75Q258.13-22.75 256.55-21.93 254.98-21.1 253.85-19.73 252.73-18.35 252.13-16.6 251.53-14.85 251.53-12.95L251.53-12.95Q251.53-11 252.2-9.25 252.88-7.5 254.1-6.15 255.33-4.8 256.95-4.05 258.58-3.3 260.48-3.3L260.48-3.3Q261.68-3.3 262.95-3.75 264.23-4.2 265.38-5 266.53-5.8 267.33-6.88 268.13-7.95 268.38-9.15ZM298.57 0L294.17 0 294.17-22.65 290.62-22.65 290.62-26.1 294.17-26.1 294.17-26.65Q294.17-29.85 295.15-32.18 296.12-34.5 297.92-35.75 299.72-37 302.17-37L302.17-37Q303.72-37 305.22-36.58 306.72-36.15 307.92-35.4L307.92-35.4 306.82-32.15Q306.12-32.65 305.1-32.95 304.07-33.25 303.07-33.25L303.07-33.25Q300.92-33.25 299.75-31.58 298.57-29.9 298.57-26.8L298.57-26.8 298.57-26.1 305.52-26.1 305.52-22.65 298.57-22.65 298.57 0ZM320.72 0.5L320.72 0.5Q317.77 0.5 315.37-0.58 312.97-1.65 311.22-3.53 309.47-5.4 308.52-7.85 307.57-10.3 307.57-13L307.57-13Q307.57-15.75 308.52-18.2 309.47-20.65 311.22-22.53 312.97-24.4 315.39-25.48 317.82-26.55 320.77-26.55L320.77-26.55Q323.67-26.55 326.07-25.48 328.47-24.4 330.25-22.53 332.02-20.65 332.97-18.2 333.92-15.75 333.92-13L333.92-13Q333.92-10.3 332.97-7.85 332.02-5.4 330.27-3.53 328.52-1.65 326.09-0.58 323.67 0.5 320.72 0.5ZM312.07-12.95L312.07-12.95Q312.07-10.25 313.25-8.05 314.42-5.85 316.37-4.58 318.32-3.3 320.72-3.3L320.72-3.3Q323.12-3.3 325.09-4.6 327.07-5.9 328.25-8.13 329.42-10.35 329.42-13.05L329.42-13.05Q329.42-15.75 328.25-17.95 327.07-20.15 325.09-21.45 323.12-22.75 320.72-22.75L320.72-22.75Q318.32-22.75 316.37-21.43 314.42-20.1 313.25-17.9 312.07-15.7 312.07-12.95ZM353.07-26.25L353.07-22.25Q349.77-22.2 347.24-20.58 344.72-18.95 343.67-16.1L343.67-16.1 343.67 0 339.27 0 339.27-26.1 343.37-26.1 343.37-20.05Q344.72-22.75 346.94-24.43 349.17-26.1 351.62-26.3L351.62-26.3Q352.12-26.3 352.47-26.3 352.82-26.3 353.07-26.25L353.07-26.25ZM374.11 0L369.61 0 369.61-35.5 393.06-35.5 393.06-31.5 374.11-31.5 374.11-19.65 390.06-19.65 390.06-15.9 374.11-15.9 374.11 0ZM433.96 0L429.46 0 429.46-27.1 417.76-6.25 415.01-6.25 403.26-27.1 403.26 0 398.76 0 398.76-35.5 403.51-35.5 416.36-12.45 429.26-35.5 433.96-35.5 433.96 0ZM440.16-18L440.16-18Q440.16-21.25 441.28-24.38 442.41-27.5 444.58-30.08 446.76-32.65 449.91-34.18 453.06-35.7 457.06-35.7L457.06-35.7Q461.81-35.7 465.21-33.52 468.61-31.35 470.26-27.95L470.26-27.95 466.71-25.65Q465.66-27.9 464.03-29.23 462.41-30.55 460.53-31.1 458.66-31.65 456.86-31.65L456.86-31.65Q453.91-31.65 451.63-30.45 449.36-29.25 447.81-27.25 446.26-25.25 445.48-22.78 444.71-20.3 444.71-17.8L444.71-17.8Q444.71-15.05 445.63-12.5 446.56-9.95 448.21-8 449.86-6.05 452.11-4.9 454.36-3.75 457.01-3.75L457.01-3.75Q458.86-3.75 460.81-4.4 462.76-5.05 464.46-6.43 466.16-7.8 467.16-10L467.16-10 470.91-7.95Q469.81-5.3 467.51-3.45 465.21-1.6 462.38-0.65 459.56 0.3 456.81 0.3L456.81 0.3Q453.16 0.3 450.11-1.28 447.06-2.85 444.83-5.48 442.61-8.1 441.38-11.38 440.16-14.65 440.16-18ZM490.4 0.25L490.4 0.25Q486.9 0.25 483.88-1.28 480.85-2.8 478.6-5.38 476.35-7.95 475.1-11.18 473.85-14.4 473.85-17.85L473.85-17.85Q473.85-21.45 475.1-24.68 476.35-27.9 478.58-30.4 480.8-32.9 483.83-34.33 486.85-35.75 490.4-35.75L490.4-35.75Q495.55-35.75 498.9-33.6 502.25-31.45 503.95-28L503.95-28 500.5-25.6Q498.95-28.7 496.25-30.2 493.55-31.7 490.3-31.7L490.3-31.7Q487.6-31.7 485.4-30.55 483.2-29.4 481.63-27.43 480.05-25.45 479.23-22.95 478.4-20.45 478.4-17.75L478.4-17.75Q478.4-14.9 479.33-12.38 480.25-9.85 481.95-7.93 483.65-6 485.9-4.9 488.15-3.8 490.75-3.8L490.75-3.8Q493.8-3.8 496.55-5.35 499.3-6.9 501.75-10.1L501.75-10.1 501.75-5.45Q496.95 0.25 490.4 0.25ZM501.2 0L501.2-14.3 493.55-14.3 493.55-17.7 505-17.7 505 0 501.2 0ZM520.1 0.5L520.1 0.5Q516.85 0.5 514-0.58 511.15-1.65 509.1-3.8L509.1-3.8 510.8-6.9Q513.05-4.8 515.3-3.9 517.55-3 519.9-3L519.9-3Q522.6-3 524.3-4.03 526-5.05 526-7.05L526-7.05Q526-8.5 525.13-9.2 524.25-9.9 522.65-10.38 521.05-10.85 518.85-11.45L518.85-11.45Q516.15-12.25 514.3-13.15 512.45-14.05 511.5-15.4 510.55-16.75 510.55-18.8L510.55-18.8Q510.55-21.3 511.85-23.03 513.15-24.75 515.43-25.65 517.7-26.55 520.6-26.55L520.6-26.55Q523.5-26.55 525.85-25.65 528.2-24.75 529.9-23L529.9-23 527.9-19.95Q526.35-21.55 524.5-22.33 522.65-23.1 520.35-23.1L520.35-23.1Q519-23.1 517.7-22.78 516.4-22.45 515.55-21.63 514.7-20.8 514.7-19.3L514.7-19.3Q514.7-18.05 515.38-17.32 516.05-16.6 517.38-16.1 518.7-15.6 520.6-15L520.6-15Q523.55-14.15 525.73-13.3 527.9-12.45 529.1-11.1 530.3-9.75 530.3-7.35L530.3-7.35Q530.3-3.65 527.5-1.58 524.7 0.5 520.1 0.5Z" opacity="1" transform="matrix(1,0,0,1,0,0)" fill="#ffffff" class="slogan-text-1" data-fill-palette-color="secondary" id="text-1"></path></svg></g></svg></g></svg></g></svg></g><g transform="matrix(1,0,0,1,0,0.3041374490184694)"><svg viewBox="0 0 124.60071007165683 121.65497960739212" height="121.65497960739212" width="124.60071007165683"><g><svg xmlns="http://www.w3.org/2000/svg" data-name="Layer 1" viewBox="0.4553107081304254 1.752859402991949 98.8446913118052 96.50786820493384" x="0" y="0" height="121.65497960739212" width="124.60071007165683" class="icon-icon-0" data-fill-palette-color="accent" id="icon-0"><path d="M71.28 6.32l-5.75 12a3.19 3.19 0 1 1-5.76-2.75l5.75-12a3.19 3.19 0 1 1 5.76 2.75Zm2.34 19.87l9.54-8.84a3.24 3.24 0 0 0-4.4-4.75l-9.54 8.84a3.24 3.24 0 0 0 4.4 4.75Zm5.1 9.87l12.44-4.82a3.19 3.19 0 1 0-2.31-6L76.41 30.1a3.19 3.19 0 0 0 2.31 6ZM1.62 76.64a3.44 3.44 0 1 1 5-4.68l0.77 0.83L38.76 13.51l-2-2.15a3.44 3.44 0 1 1 5-4.68L75.51 43.09l-1.14 0A30.3 30.3 0 0 0 44.15 71.77l-9.32 4.05 1.49 1.61a7.6 7.6 0 0 0 8.39 1.88 30 30 0 0 0 2.14 6.56 14.5 14.5 0 0 1-15.57-3.76l-3.13-3.38L17.31 83.44l1.18 1.28a3.44 3.44 0 0 1-5 4.68Zm16.09-6.16L48.77 31.81a1.94 1.94 0 0 0-0.09-2.54l-5.54-6a1.18 1.18 0 0 0-1.9 0.25L16.77 69.86A0.57 0.57 0 0 0 17.71 70.48ZM99.3 73.32A24.93 24.93 0 1 1 74.37 48.4 25 25 0 0 1 99.3 73.32ZM61.83 77.69a41.86 41.86 0 0 1 0-8.74h-6a18.43 18.43 0 0 0 0 8.74Zm3.84 12.57a27.55 27.55 0 0 1-3.13-8.17H57.46A19.17 19.17 0 0 0 65.67 90.26Zm0-33.88a19.17 19.17 0 0 0-8.21 8.17h5.08A27.56 27.56 0 0 1 65.67 56.38Zm6.5 25.71H67.05c1.14 4.47 3.07 7.7 5.12 9.08Zm0-13.14H66.25a38.08 38.08 0 0 0 0 8.74h5.92Zm0-13.48c-2.05 1.38-4 4.62-5.12 9.08h5.12Zm10.9 0.91a27.56 27.56 0 0 1 3.13 8.17h5.08A19.17 19.17 0 0 0 83.07 56.38Zm-6.5 8.17h5.12c-1.14-4.47-3.07-7.7-5.12-9.08Zm5.12 17.54H76.57v9.08C78.62 89.79 80.55 86.56 81.69 82.09Zm1-8.77A38.44 38.44 0 0 0 82.49 69H76.57v8.74h5.92A38.45 38.45 0 0 0 82.74 73.32Zm8.54 8.77H86.2a27.55 27.55 0 0 1-3.13 8.17A19.17 19.17 0 0 0 91.28 82.09ZM92.91 69h-6a41.86 41.86 0 0 1 0 8.74h6a18.43 18.43 0 0 0 0-8.74Z" fill="#ffffff" data-fill-palette-color="accent"></path></svg></g></svg></g></svg></g><defs></defs></svg><rect width="395.52" height="85.45284232776493" fill="none" stroke="none" visibility="hidden"></rect></g></svg></g></svg>